<?xml version="1.0" encoding="utf-8"?>
<svg version="1.1" xmlns:xlink="http://www.w3.org/1999/xlink" width="58px" height="32px" xmlns="http://www.w3.org/2000/svg">
  <defs>
    <mask fill="white" id="clip3">
      <path d="M 58 27.4285714285714  L 58 4.57142857142857  C 58 2.01142857142857  56.405 0  54.375 0  L 0 0  L 0 32  L 54.375 32  C 56.405 32  58 29.9885714285714  58 27.4285714285714  Z " fill-rule="evenodd" />
    </mask>
  </defs>
  <g transform="matrix(1 0 0 1 -906 -208 )">
    <path d="M 58 27.4285714285714  L 58 4.57142857142857  C 58 2.01142857142857  56.405 0  54.375 0  L 0 0  L 0 32  L 54.375 32  C 56.405 32  58 29.9885714285714  58 27.4285714285714  Z " fill-rule="nonzero" fill="#ffffff" stroke="none" transform="matrix(1 0 0 1 906 208 )" />
    <path d="M 58 27.4285714285714  L 58 4.57142857142857  C 58 2.01142857142857  56.405 0  54.375 0  L 0 0  L 0 32  L 54.375 32  C 56.405 32  58 29.9885714285714  58 27.4285714285714  Z " stroke-width="2" stroke="#d9d9d9" fill="none" transform="matrix(1 0 0 1 906 208 )" mask="url(#clip3)" />
  </g>
</svg>