<?xml version="1.0" encoding="utf-8"?>
<svg version="1.1" xmlns:xlink="http://www.w3.org/1999/xlink" width="1159px" height="37px" xmlns="http://www.w3.org/2000/svg">
  <defs>
    <mask fill="white" id="clip6">
      <path d="M 0 32.375  L 0 4.625  C 0 2.03499999999999  1.99203124999999 0  4.52734375 0  L 101.136696300287 0  L 1154.47265625 0  C 1157.00796875 0  1159 2.03499999999999  1159 4.625  L 1159 32.375  C 1159 34.965  1157.00796875 37  1154.47265625 37  L 4.52734375 37  C 1.99203124999999 37  0 34.965  0 32.375  Z " fill-rule="evenodd" />
    </mask>
  </defs>
  <g transform="matrix(1 0 0 1 -186 -446 )">
    <path d="M 0 32.375  L 0 4.625  C 0 2.03499999999999  1.99203124999999 0  4.52734375 0  L 101.136696300287 0  L 1154.47265625 0  C 1157.00796875 0  1159 2.03499999999999  1159 4.625  L 1159 32.375  C 1159 34.965  1157.00796875 37  1154.47265625 37  L 4.52734375 37  C 1.99203124999999 37  0 34.965  0 32.375  Z " fill-rule="nonzero" fill="#ffffff" stroke="none" transform="matrix(1 0 0 1 186 446 )" />
    <path d="M 0 32.375  L 0 4.625  C 0 2.03499999999999  1.99203124999999 0  4.52734375 0  L 101.136696300287 0  L 1154.47265625 0  C 1157.00796875 0  1159 2.03499999999999  1159 4.625  L 1159 32.375  C 1159 34.965  1157.00796875 37  1154.47265625 37  L 4.52734375 37  C 1.99203124999999 37  0 34.965  0 32.375  Z " stroke-width="2" stroke="#d9d9d9" fill="none" transform="matrix(1 0 0 1 186 446 )" mask="url(#clip6)" />
  </g>
</svg>