<?xml version="1.0" encoding="utf-8"?>
<svg version="1.1" xmlns:xlink="http://www.w3.org/1999/xlink" width="1234px" height="32px" xmlns="http://www.w3.org/2000/svg">
  <g transform="matrix(1 0 0 1 -186 -735 )">
    <path d="M 187 739  A 3 3 0 0 1 190 736 L 1416 736  A 3 3 0 0 1 1419 739 L 1419 763  A 3 3 0 0 1 1416 766 L 190 766  A 3 3 0 0 1 187 763 L 187 739  Z " fill-rule="nonzero" fill="#ffffff" stroke="none" />
    <path d="M 186.5 739  A 3.5 3.5 0 0 1 190 735.5 L 1416 735.5  A 3.5 3.5 0 0 1 1419.5 739 L 1419.5 763  A 3.5 3.5 0 0 1 1416 766.5 L 190 766.5  A 3.5 3.5 0 0 1 186.5 763 L 186.5 739  Z " stroke-width="1" stroke-dasharray="9,4" stroke="#e9e9e9" fill="none" stroke-dashoffset="0.5" />
  </g>
</svg>