<?xml version="1.0" encoding="utf-8"?>
<svg version="1.1" xmlns:xlink="http://www.w3.org/1999/xlink" width="61px" height="33px" xmlns="http://www.w3.org/2000/svg">
  <g transform="matrix(1 0 0 1 -710 -237 )">
    <path d="M 59.5 26.2857142857143  L 59.5 5.71428571428571  C 59.4545454545455 2.19428571428573  58.1478787878788 0.571428571428571  54.7878787878788 0.571428571428571  L 0 0.571428571428571  L 0 31.5  L 54.7878787878788 31.5  C 58.1478787878788 31.4285714285714  59.4545454545455 29.8057142857143  59.5 26.2857142857143  Z " fill-rule="nonzero" fill="#e3e5e9" stroke="none" fill-opacity="0.349019607843137" transform="matrix(1 0 0 1 710 237 )" />
    <path d="M 0 31.5  L 54.7878787878788 31.5  C 58.1478787878788 31.4285714285714  59.4545454545455 29.8057142857143  59.5 26.2857142857143  L 59.5 5.71428571428571  C 59.4545454545455 2.19428571428573  58.1478787878788 0.571428571428571  54.7878787878788 0.571428571428571  L 0 0.571428571428571  " stroke-width="1" stroke="#d9d9d9" fill="none" transform="matrix(1 0 0 1 710 237 )" />
  </g>
</svg>